<svg xmlns="http://www.w3.org/2000/svg" xmlns:xlink="http://www.w3.org/1999/xlink" viewBox="0 0 512 512"><defs><clipPath id="b"><rect width="512" height="512"/></clipPath></defs><g id="a" clip-path="url(#b)"><g transform="translate(65 1)"><g transform="translate(0.487 0)"><path d="M244.89,56c0-30.928,24.425-56,54.555-56S354,25.072,354,56s-24.425,56-54.555,56S244.89,86.928,244.89,56ZM0,56C0,25.072,24.425,0,54.555,0S109.11,25.072,109.11,56s-24.425,56-54.555,56S0,86.928,0,56Z" transform="translate(11.513 0)" fill="#222b3f"/><path d="M188.634,483.845S-20.508,271.516,1.876,159.826,109.293,0,188.634,0s165.51,48.137,190.484,159.826S188.634,483.845,188.634,483.845Z" transform="translate(-0.199 27.155)" fill="#5f75f7"/><g transform="translate(16.049 61.01)"><g transform="translate(18.11 0)"><path d="M291.506,209.578c11.6-12.581,18.8-26.945,20.186-42.264,6.229-31.837-1.867-68.577-21.989-98.387l-9.141-13.541C256.763,20.126,213.248,0,176.653,0h-39.58C100.5,0,56.985,20.126,33.166,55.386l-9.12,13.541C5.585,96.264-2.749,129.455.8,159.307c-.032.838-.053,1.682-.053,2.531,0,53.189,69.666,96.307,155.6,96.307,49.8,0,94.134-14.481,122.611-37.01A81.075,81.075,0,0,0,291.506,209.578Z" transform="translate(0)" fill="#fff"/></g><path d="M125.372,141.845c-10.354,0-19.341-5.257-23.7-12.9-4.366,7.643-13.353,12.9-23.709,12.9h-.077A29.659,29.659,0,0,1,65.8,139.259a3.212,3.212,0,0,1-2.052-2.615A3.354,3.354,0,0,1,65,133.511a2.9,2.9,0,0,1,3.193-.229,23.735,23.735,0,0,0,9.765,2.044c11.251,0,20.4-7.556,20.4-16.841a3.423,3.423,0,0,1,.5-1.784v-12.7c-6.495-1.947-22.539-7.2-29.829-13.515-9.258-8.025,6.334-17.767,12.666-17.767s14.373,3.441,19.976,3.441,13.615-3.441,19.976-3.441c6.334,0,21.919,9.747,12.665,17.767-7.286,6.316-23.337,11.568-29.831,13.515v12.7a3.394,3.394,0,0,1,.5,1.782c0,9.285,9.15,16.841,20.4,16.841a23.794,23.794,0,0,0,9.767-2.064,2.9,2.9,0,0,1,3.191.227,3.359,3.359,0,0,1,1.258,3.135,3.217,3.217,0,0,1-2.054,2.615,29.654,29.654,0,0,1-12.132,2.606ZM15.508,71.778a24.447,24.447,0,0,1-8.2-6.283,28.947,28.947,0,0,1-5.232-9.174C-1.378,46.634-.492,35,4.507,24.408A45.2,45.2,0,0,1,18.9,6.845,32.242,32.242,0,0,1,37.549.407a24.364,24.364,0,0,1,18.733,8.6,28.959,28.959,0,0,1,5.232,9.176C64.967,27.874,64.081,39.5,59.083,50.1A45.2,45.2,0,0,1,44.7,67.661,32.247,32.247,0,0,1,26.043,74.1,24.518,24.518,0,0,1,15.508,71.778Zm28.079-44.73c0,5.463,3.509,9.909,7.819,9.909s7.821-4.446,7.821-9.909-3.509-9.911-7.821-9.911S43.587,21.582,43.587,27.047ZM156.431,67.254a45.194,45.194,0,0,1-14.387-17.563c-5-10.593-5.884-22.224-2.431-31.911a28.954,28.954,0,0,1,5.23-9.176A24.373,24.373,0,0,1,163.578,0a32.242,32.242,0,0,1,18.653,6.439A45.2,45.2,0,0,1,196.62,24c5,10.593,5.884,22.226,2.431,31.913a29.013,29.013,0,0,1-5.232,9.174,24.364,24.364,0,0,1-18.733,8.6A32.254,32.254,0,0,1,156.431,67.254ZM142.205,26.681c0,5.465,3.509,9.911,7.821,9.911s7.819-4.446,7.819-9.911-3.509-9.909-7.819-9.909S142.205,21.218,142.205,26.681Z" transform="translate(71.572 81.034)" fill="#222b3f"/><path d="M88.965,118c-16.679,0-38.624-.969-46.477-2.589a25.868,25.868,0,0,1-13.966-7.649c-4.111-4.388-6.824-10.377-8.063-17.8-1.371-8.209-2.451-16.97-3.4-24.7-.868-7.041-1.617-13.12-2.368-17A25.508,25.508,0,0,0,9.9,37.233,14.791,14.791,0,0,0,0,31.478L0,11.985c1.621-.334,3.833-.826,6.394-1.4C21.073,7.326,51.609.535,77.11.072c.721-.013,1.467-.02,2.218-.02,14.41,0,32.007,2.416,48.8,4.891l4.068.6.176.026c14.787,2.194,28.754,4.267,38.15,4.267.526,0,1.041-.007,1.531-.019,10.6-.281,29.255-2.636,47.3-4.914C236.139,2.786,253.5.594,264.369.072c1-.048,2.084-.072,3.216-.072C290.528,0,333.6,9.984,342,11.985V32.021l-.113.05c-7.26,3.211-13.53,5.984-14.575,21.068-1,14.443-2.528,27.666-4.195,36.28a41.056,41.056,0,0,1-6.885,15.7,28.349,28.349,0,0,1-7.5,7.141,24.207,24.207,0,0,1-10.793,3.689c-11.4,1.1-23.069,1.268-34.353,1.429l-2.286.033c-2.394.035-4.89.159-7.3.279-2.963.147-6.022.3-9.031.3a47.48,47.48,0,0,1-14.17-1.789c-7.774-2.4-15.187-8.493-22.032-18.12-3.747-5.275-12.128-28.1-17.136-41.742-2.273-6.193-3.775-10.282-3.935-10.282-.026.029,0,.187.073.511-.9-2.971-5.814-17.8-15.195-17.8a15.529,15.529,0,0,0-12.851,6.092,28.3,28.3,0,0,0-4.982,11.777c-1.509,7.267-14.554,45.307-18.36,50.359-2.437,3.235-15.409,19.433-31.47,20.576C101,117.853,95.49,118,88.965,118Zm171.8-106.627c-22.234,0-43.187,3.481-49.764,5.995-.644.246-1.337.481-2.071.729-3.275,1.109-7.35,2.489-9.958,6.042-3.049,4.153-3.553,10.436-1.542,19.209,5.431,23.683,11.518,39.836,15.08,46.473,4.395,8.192,11.542,13.639,21.85,16.65,9.024,2.636,18.97,3,28.374,3,.785,0,1.559,0,2.328-.007,1.029-.007,2.088-.007,3.21-.007h.535c7.621,0,18.057,0,26.792-2.471a29.561,29.561,0,0,0,11.315-5.7,20.558,20.558,0,0,0,6.63-10.99c3.9-16.013,6.031-42.728,6.031-51.966,0-4.175,0-9.37-2.513-13.8-2.94-5.188-8.695-8.354-17.593-9.681C283.776,12.509,271.116,11.373,260.763,11.373Zm-179.519,0c-10.263,0-22.927,1.146-38.715,3.5-8.9,1.329-14.651,4.5-17.591,9.7-2.513,4.441-2.513,9.645-2.513,13.826,0,9.25,2.128,36.005,6.028,52.045A20.323,20.323,0,0,0,34.5,100.806a28.036,28.036,0,0,0,10.248,5.72c7.872,2.61,17.109,2.944,24.278,2.944,7.88,0,15.691-.256,22.957-.533,8.993-.338,15.858-1.67,21.606-4.192a32.06,32.06,0,0,0,15.909-14.8c3.564-6.656,9.651-22.839,15.078-46.543,2.011-8.787,1.507-15.081-1.542-19.241-2.608-3.559-6.683-4.941-9.957-6.051-.733-.249-1.425-.483-2.069-.73C124.429,14.859,103.478,11.373,81.244,11.373Z" transform="translate(0.463 56.99)" fill="#222b3f"/></g></g></g></g></svg>